<svg width="117" height="163" viewBox="0 0 117 163" fill="none" xmlns="http://www.w3.org/2000/svg">
<g clip-path="url(#clip0_390_1877)">
<path d="M58.0801 37.96C68.5625 37.96 77.0601 29.4624 77.0601 18.98C77.0601 8.49763 68.5625 0 58.0801 0C47.5977 0 39.1001 8.49763 39.1001 18.98C39.1001 29.4624 47.5977 37.96 58.0801 37.96Z" fill="#FCFCFB"/>
<path d="M66.5702 108.96C63.4302 92.9498 91.1402 80.8398 88.0102 69.3998C85.4302 59.9798 64.9002 61.8098 63.3202 52.9998C61.9902 45.5798 76.2202 42.5098 81.1102 27.5498C85.3702 14.4898 78.4902 4.74976 82.6702 2.03976C87.1302 -0.850238 99.7602 7.09976 107.26 17.7198C121.29 37.5798 116.84 66.0198 107.26 84.7298C98.1202 102.57 79.8802 120.19 71.3402 116.45C67.7302 114.87 66.7502 109.86 66.5702 108.97V108.96Z" fill="#FCFCFB"/>
<path d="M49.6201 108.96C52.7601 92.9498 25.0501 80.8398 28.1801 69.3998C30.7601 59.9798 51.2901 61.8098 52.8701 52.9998C54.2001 45.5798 39.9701 42.5098 35.0801 27.5498C30.8201 14.4898 37.7001 4.74976 33.5201 2.03976C29.0601 -0.850238 16.4301 7.09976 8.93006 17.7198C-5.09994 37.5798 -0.649939 66.0198 8.93006 84.7298C18.0701 102.57 36.3101 120.19 44.8501 116.45C48.4601 114.87 49.4401 109.86 49.6201 108.97V108.96Z" fill="#FCFCFB"/>
<path d="M19.86 162.1C17.83 162.1 16.07 161.63 14.59 160.69C13.1 159.75 11.96 158.42 11.17 156.71C10.38 154.99 9.97998 152.95 9.97998 150.58C9.97998 148.21 10.38 146.16 11.17 144.44C11.96 142.71 13.09 141.37 14.55 140.43C16.01 139.48 17.71 139.01 19.67 139.01C21.39 139.01 22.9 139.36 24.22 140.06C25.54 140.76 26.57 141.72 27.31 142.95C28.05 144.17 28.42 145.58 28.42 147.16H23.44C23.37 146.11 22.99 145.26 22.3 144.58C21.62 143.91 20.74 143.57 19.67 143.57C18.18 143.57 17.02 144.2 16.2 145.45C15.38 146.7 14.97 148.39 14.97 150.5C14.97 152.61 15.4 154.42 16.27 155.68C17.14 156.94 18.34 157.58 19.87 157.58C20.89 157.58 21.74 157.26 22.43 156.62C23.12 155.98 23.59 154.98 23.83 153.61H20.01V149.37H25.05C26.42 149.37 27.39 149.71 27.98 150.38C28.57 151.05 28.87 152 28.87 153.22C28.87 154.13 28.71 155.1 28.4 156.12C28.09 157.15 27.58 158.11 26.88 159.02C26.18 159.93 25.25 160.67 24.1 161.24C22.95 161.81 21.54 162.1 19.88 162.1H19.86Z" fill="#FCFCFB"/>
<path d="M32.1802 161.66V139.45H46.3002V143.92H37.0002V148.1H45.7202V152.39H37.0002V157.19H46.3002V161.66H32.1802Z" fill="#FCFCFB"/>
<path d="M49.7002 161.66V139.45H57.9502C60.5302 139.45 62.5202 140.01 63.9002 141.12C65.2802 142.24 65.9802 143.83 65.9802 145.9C65.9802 147.12 65.6802 148.19 65.0702 149.1C64.4602 150.01 63.5902 150.71 62.4702 151.2C63.7402 151.63 64.6002 152.28 65.0402 153.14C65.4802 154 65.7002 155.09 65.7002 156.41V161.65H60.9402V156.94C60.9402 154.67 59.9402 153.53 57.9502 153.53H54.5202V161.64H49.7002V161.66ZM54.5202 149.19H57.9502C58.9302 149.19 59.6802 148.95 60.2102 148.46C60.7402 147.98 61.0002 147.29 61.0002 146.4C61.0002 145.59 60.7402 144.96 60.2102 144.52C59.6802 144.08 58.9302 143.85 57.9502 143.85H54.5202V149.18V149.19Z" fill="#FCFCFB"/>
<path d="M67.97 161.66L73.95 143.54C74.26 142.57 74.58 141.75 74.9 141.08C75.22 140.41 75.63 139.9 76.12 139.54C76.61 139.18 77.24 139.01 78.02 139.01C78.8 139.01 79.46 139.19 79.96 139.54C80.46 139.9 80.88 140.4 81.22 141.07C81.56 141.73 81.88 142.54 82.17 143.48L87.98 161.66H83.05L81.69 156.95H74.24L72.83 161.66H67.96H67.97ZM77.97 144.72L75.59 152.57H80.41L78.14 144.72C78.12 144.64 78.09 144.6 78.06 144.6C78.03 144.6 77.99 144.64 77.98 144.72H77.97Z" fill="#FCFCFB"/>
<path d="M98.0598 162.1C96.4398 162.1 94.9598 161.8 93.6398 161.21C92.3198 160.62 91.2698 159.75 90.4798 158.62C89.6998 157.48 89.2998 156.09 89.2998 154.43H94.2298C94.3198 155.54 94.7098 156.36 95.3898 156.89C96.0698 157.42 96.9198 157.69 97.9398 157.69C98.9598 157.69 99.7598 157.5 100.4 157.13C101.05 156.76 101.37 156.23 101.37 155.56C101.37 154.99 101.18 154.56 100.79 154.29C100.4 154.01 99.8098 153.75 99.0198 153.49L94.5898 152.1C93.7198 151.82 92.8998 151.47 92.1298 151.05C91.3498 150.63 90.7298 150.04 90.2598 149.29C89.7898 148.54 89.5498 147.52 89.5498 146.24C89.5498 144.76 89.8798 143.48 90.5498 142.4C91.2098 141.32 92.1598 140.49 93.3698 139.9C94.5898 139.31 96.0198 139.01 97.6598 139.01C100.04 139.01 101.97 139.63 103.46 140.88C104.95 142.12 105.8 143.89 106.02 146.18H101.04C100.65 144.3 99.4598 143.37 97.4698 143.37C96.5098 143.37 95.7798 143.57 95.2698 143.96C94.7598 144.36 94.5098 144.89 94.5098 145.56C94.5098 146.05 94.6698 146.47 94.9798 146.8C95.2898 147.14 95.7898 147.41 96.4698 147.63L101.09 149.11C102.86 149.66 104.15 150.42 104.97 151.39C105.78 152.36 106.19 153.62 106.19 155.18C106.19 156.56 105.85 157.77 105.18 158.81C104.51 159.85 103.56 160.66 102.34 161.24C101.12 161.82 99.6898 162.11 98.0498 162.11L98.0598 162.1Z" fill="#FCFCFB"/>
</g>
<defs>
<clipPath id="clip0_390_1877">
<rect width="116.18" height="162.1" fill="white"/>
</clipPath>
</defs>
</svg>
