<svg width="393" height="258" viewBox="0 0 393 258" fill="none" xmlns="http://www.w3.org/2000/svg">
<path d="M473.182 103.214C417.504 154.019 339.504 245.519 203.418 202.63C61.3067 157.841 4.88355 200.837 -21.3848 257.766L-55.4736 215.032C-53.3968 212.383 -51.2734 209.797 -49.1055 207.275C-48.5656 206.647 -48.6371 205.7 -49.2646 205.16C-49.8928 204.62 -50.8408 204.691 -51.3809 205.319C-53.4255 207.698 -55.4308 210.133 -57.3955 212.623L-87.7432 174.58C-36.6174 113.287 60.3428 47.217 159.502 83.4639C259.504 120.019 374.553 58.7426 435.145 0L473.182 103.214ZM-28.9082 184.676C-29.4604 184.059 -30.408 184.006 -31.0254 184.558C-34.6171 187.77 -38.1296 191.122 -41.5527 194.614C-42.1324 195.206 -42.1228 196.156 -41.5312 196.735C-40.9398 197.315 -39.991 197.305 -39.4111 196.714C-36.0344 193.269 -32.5692 189.962 -29.0264 186.794C-28.4091 186.242 -28.3563 185.293 -28.9082 184.676ZM-6.03711 167.041C-6.50335 166.356 -7.43639 166.179 -8.12109 166.646C-12.1078 169.359 -16.0297 172.221 -19.877 175.229C-20.5294 175.74 -20.6449 176.682 -20.1348 177.335C-19.6245 177.987 -18.6818 178.103 -18.0293 177.593C-14.2344 174.625 -10.3651 171.803 -6.43262 169.126C-5.74782 168.66 -5.57099 167.726 -6.03711 167.041ZM271.942 158.477C267.148 158.742 262.276 158.84 257.332 158.755C256.504 158.741 255.821 159.401 255.807 160.229C255.792 161.057 256.452 161.739 257.28 161.754C262.298 161.841 267.243 161.741 272.108 161.472C272.935 161.426 273.569 160.718 273.523 159.891C273.477 159.064 272.769 158.431 271.942 158.477ZM18.958 152.575C18.5863 151.835 17.6856 151.536 16.9453 151.907C12.6339 154.072 8.36865 156.392 4.16211 158.865C3.44847 159.285 3.21035 160.204 3.62988 160.918C4.04981 161.632 4.96949 161.871 5.68359 161.451C9.83272 159.011 14.0385 156.723 18.291 154.588C19.0312 154.216 19.3295 153.315 18.958 152.575ZM228.242 156.134C227.425 156.001 226.654 156.556 226.521 157.373C226.387 158.19 226.942 158.961 227.759 159.095C232.723 159.905 237.63 160.522 242.475 160.959C243.299 161.033 244.028 160.424 244.103 159.6C244.177 158.775 243.568 158.045 242.743 157.971C237.97 157.54 233.135 156.933 228.242 156.134ZM302.704 155.954C302.542 155.142 301.752 154.615 300.939 154.777C296.222 155.72 291.41 156.514 286.507 157.141C285.685 157.246 285.104 157.998 285.209 158.819C285.314 159.641 286.066 160.221 286.888 160.116C291.862 159.48 296.744 158.675 301.527 157.719C302.339 157.556 302.866 156.766 302.704 155.954ZM199.791 149.427C199 149.182 198.159 149.626 197.915 150.418C197.671 151.21 198.115 152.05 198.906 152.294C203.715 153.778 208.48 155.072 213.198 156.187C214.004 156.377 214.813 155.878 215.004 155.071C215.194 154.265 214.694 153.457 213.888 153.267C209.236 152.168 204.536 150.891 199.791 149.427ZM331.067 148.068C330.799 147.285 329.946 146.866 329.162 147.134C324.616 148.69 319.952 150.128 315.177 151.424C314.377 151.641 313.905 152.465 314.122 153.265C314.339 154.064 315.162 154.536 315.962 154.319C320.802 153.006 325.528 151.549 330.134 149.973C330.917 149.704 331.335 148.852 331.067 148.068ZM45.6455 141.54C45.3752 140.757 44.522 140.342 43.7393 140.611C39.1799 142.185 34.6471 143.92 30.1533 145.814C29.39 146.136 29.0317 147.016 29.3535 147.779C29.6755 148.542 30.5551 148.9 31.3184 148.578C35.7507 146.709 40.2213 144.999 44.7178 143.447C45.5004 143.177 45.9155 142.323 45.6455 141.54ZM172.34 139.294C171.561 139.012 170.701 139.414 170.418 140.192C170.136 140.971 170.537 141.83 171.315 142.113C173.563 142.929 175.786 143.795 177.981 144.71C180.293 145.673 182.595 146.59 184.889 147.463C185.663 147.758 186.529 147.37 186.824 146.596C187.119 145.822 186.73 144.954 185.956 144.659C183.692 143.797 181.418 142.891 179.136 141.94C176.897 141.008 174.631 140.126 172.34 139.294ZM358.223 136.663C357.862 135.918 356.964 135.605 356.219 135.966C351.909 138.053 347.451 140.063 342.853 141.964C342.087 142.28 341.723 143.157 342.039 143.923C342.356 144.688 343.233 145.052 343.998 144.735C348.654 142.811 353.166 140.779 357.526 138.667C358.272 138.306 358.583 137.409 358.223 136.663ZM73.5693 134.177C73.4073 133.364 72.617 132.836 71.8047 132.998C67.0766 133.941 62.353 135.051 57.6465 136.328C56.8471 136.545 56.3751 137.37 56.5918 138.169C56.8088 138.968 57.6332 139.442 58.4326 139.225C63.0735 137.965 67.7306 136.871 72.3916 135.941C73.2037 135.779 73.7312 134.989 73.5693 134.177ZM144.198 131.807C143.382 131.663 142.604 132.208 142.46 133.023C142.316 133.839 142.86 134.618 143.676 134.762C148.409 135.598 153.076 136.623 157.66 137.839C158.461 138.051 159.283 137.574 159.495 136.773C159.707 135.973 159.229 135.152 158.429 134.939C153.761 133.702 149.013 132.657 144.198 131.807ZM100.667 129.317C95.8514 129.586 91.0143 130.03 86.1709 130.649C85.3494 130.755 84.768 131.507 84.873 132.328C84.9783 133.149 85.7294 133.73 86.5508 133.625C91.324 133.015 96.0902 132.577 100.834 132.312C101.661 132.266 102.293 131.558 102.247 130.731C102.201 129.905 101.494 129.272 100.667 129.317ZM115.217 129.038C114.389 129.023 113.704 129.684 113.689 130.512C113.675 131.34 114.335 132.023 115.163 132.038C119.974 132.124 124.75 132.392 129.476 132.841C130.3 132.919 131.032 132.314 131.11 131.49C131.189 130.666 130.583 129.933 129.759 129.854C124.956 129.399 120.104 129.126 115.217 129.038ZM383.871 122.22C383.43 121.519 382.504 121.309 381.803 121.75C377.802 124.268 373.603 126.767 369.216 129.207C368.492 129.61 368.231 130.523 368.634 131.247C369.036 131.971 369.95 132.232 370.674 131.829C375.111 129.361 379.356 126.834 383.401 124.288C384.102 123.847 384.312 122.921 383.871 122.22ZM402.021 109.624C401.525 108.96 400.585 108.823 399.921 109.318C398.019 110.736 396.048 112.169 394.009 113.608C393.332 114.086 393.171 115.023 393.648 115.699C394.126 116.375 395.062 116.536 395.738 116.059C397.799 114.604 399.792 113.157 401.714 111.725C402.378 111.229 402.516 110.288 402.021 109.624Z" fill="#FBFBFB"/>
</svg>
