<svg width="86" height="21" viewBox="0 0 86 21" fill="none" xmlns="http://www.w3.org/2000/svg">
<path d="M8.98245 20.9944C7.13682 20.9944 5.53969 20.5672 4.18827 19.7156C2.83965 18.864 1.80096 17.655 1.08057 16.0941C0.360191 14.5333 0 12.6765 0 10.5209C0 8.36538 0.360191 6.50578 1.08057 4.93658C1.80096 3.36737 2.82569 2.14998 4.14918 1.28999C5.47547 0.429996 7.02792 0 8.80654 0C10.3674 0 11.7467 0.318309 12.9446 0.954926C14.1424 1.59154 15.0778 2.46829 15.7507 3.57958C16.2728 4.44794 16.5939 5.41404 16.7084 6.47786C16.7615 6.97208 16.3706 7.40207 15.8736 7.40207H12.9473C12.5844 7.40207 12.2158 7.11169 12.1348 6.75708C11.984 6.09254 11.6713 5.52573 11.1966 5.05943C10.5768 4.45074 9.77822 4.1436 8.80654 4.1436C7.44675 4.1436 6.3941 4.7132 5.64858 5.85241C4.90307 6.99162 4.52892 8.52174 4.52892 10.4428C4.52892 12.3638 4.90865 13.9497 5.66813 15.0917C6.45832 16.2812 7.8572 16.9681 9.28121 16.8648C10.0742 16.8089 10.7499 16.5185 11.3083 16.002C11.8277 15.5217 12.2074 14.8181 12.4448 13.8911C12.5257 13.5784 12.2968 13.2712 11.9729 13.2712H9.94296C9.47946 13.2712 9.1053 12.8971 9.1053 12.4336V10.2585C9.1053 9.79497 9.47946 9.42082 9.94296 9.42082H13.6845C14.927 9.42082 15.8149 9.72517 16.351 10.3367C16.8871 10.9481 17.1552 11.8081 17.1552 12.9194C17.1552 13.7459 17.0128 14.6254 16.728 15.558C16.4432 16.4906 15.9824 17.3702 15.343 18.1966C14.7064 19.0231 13.8632 19.696 12.8133 20.2154C11.7663 20.7347 10.4846 20.9972 8.97686 20.9972L8.98245 20.9944Z" fill="black"/>
<path d="M19.1553 18.6324V2.35394C19.1553 1.27337 20.0292 0.399414 21.1098 0.399414H31.1058C31.5917 0.399414 31.9881 0.793112 31.9881 1.28174V3.5825C31.9881 4.06834 31.5944 4.46483 31.1058 4.46483H24.413C23.9271 4.46483 23.5306 4.85853 23.5306 5.34716V7.37987C23.5306 7.86571 23.9243 8.2622 24.413 8.2622H30.5781C31.0639 8.2622 31.4604 8.6559 31.4604 9.14453V11.2861C31.4604 11.772 31.0667 12.1685 30.5781 12.1685H24.413C23.9271 12.1685 23.5306 12.5622 23.5306 13.0508V15.6503C23.5306 16.1361 23.9243 16.5326 24.413 16.5326H31.1058C31.5917 16.5326 31.9881 16.9263 31.9881 17.415V19.7157C31.9881 20.2016 31.5944 20.5981 31.1058 20.5981H21.1098C20.0292 20.5981 19.1553 19.7241 19.1553 18.6435V18.6324Z" fill="black"/>
<path d="M33.9883 19.7546V2.35931C33.9883 1.27874 34.8622 0.404785 35.9428 0.404785H41.4881C43.8363 0.404785 45.6401 0.912962 46.8965 1.92652C48.1558 2.94009 48.7841 4.38923 48.7841 6.27395C48.7841 7.38803 48.5076 8.35692 47.9548 9.18061C47.656 9.62736 47.2847 10.0211 46.8463 10.3561C46.3967 10.7023 46.3995 11.3892 46.8714 11.7075C47.3433 12.0258 47.7007 12.4112 47.9296 12.8551C48.3317 13.6369 48.5328 14.6282 48.5328 15.8288V19.7546C48.5328 20.2181 48.1586 20.5923 47.6951 20.5923H45.0425C44.579 20.5923 44.2049 20.2181 44.2049 19.7546V16.3118C44.2049 14.2484 43.2974 13.2153 41.4881 13.2153H38.9863C38.6429 13.2153 38.3664 13.4917 38.3664 13.8352V19.7518C38.3664 20.2153 37.9923 20.5895 37.5288 20.5895H34.8259C34.3624 20.5895 33.9883 20.2153 33.9883 19.7518V19.7546ZM38.3664 8.42114C38.3664 8.88464 38.7406 9.25879 39.2041 9.25879H41.4881C42.376 9.25879 43.0601 9.03821 43.5375 8.59984C44.015 8.16146 44.2551 7.53602 44.2551 6.72908C44.2551 5.99194 44.015 5.42233 43.5375 5.02026C43.0601 4.61539 42.376 4.41436 41.4881 4.41436H39.2041C38.7406 4.41436 38.3664 4.78851 38.3664 5.25201V8.42114Z" fill="black"/>
<path d="M51.6226 20.7932C51.053 20.7932 50.6482 20.2347 50.8269 19.693L55.9003 4.31929C56.1851 3.43975 56.4754 2.69424 56.7686 2.08554C57.0618 1.47406 57.4304 1.00776 57.8771 0.686661C58.3211 0.362768 58.8963 0.203613 59.5999 0.203613C60.3035 0.203613 60.9066 0.36556 61.3618 0.686661C61.8169 1.00776 62.1966 1.47126 62.5066 2.07158C62.8165 2.6719 63.1069 3.40345 63.3749 4.26624L68.3087 19.7014C68.4818 20.2431 68.077 20.7932 67.5101 20.7932H64.8073C64.4332 20.7932 64.1065 20.5474 64.0032 20.1873L63.0455 16.8674C62.984 16.6579 62.7942 16.5127 62.5764 16.5127H56.5397C56.3247 16.5127 56.132 16.6551 56.0706 16.8618L55.071 20.1956C54.9649 20.5502 54.6382 20.7932 54.2696 20.7932H51.6226ZM59.5468 5.39707L57.7096 11.4505C57.5476 11.9894 57.9497 12.5311 58.5109 12.5311H60.6442C61.2026 12.5311 61.6047 11.995 61.4483 11.4617L59.6948 5.39986C59.6781 5.32727 59.653 5.29097 59.6194 5.29097C59.5859 5.29097 59.5608 5.32727 59.5441 5.39986L59.5468 5.39707Z" fill="black"/>
<path d="M78.069 20.9972C76.5919 20.9972 75.2545 20.7292 74.0566 20.1903C72.856 19.6514 71.9011 18.8668 71.1891 17.8337C70.9378 17.4707 70.7312 17.077 70.5692 16.6554C70.0806 15.3877 71.0439 14.0251 72.4037 14.0251H73.4591C74.0511 14.0251 74.5955 14.3937 74.777 14.9577C74.9585 15.5217 75.2461 15.9378 75.6566 16.2589C76.2764 16.7419 77.0499 16.9848 77.9713 16.9848C78.8927 16.9848 79.6243 16.8145 80.2106 16.4739C80.797 16.1332 81.093 15.6586 81.093 15.0471C81.093 14.5277 80.917 14.1424 80.5652 13.8883C80.2134 13.637 79.6773 13.3941 78.9541 13.1623L74.9278 11.8975C74.1404 11.6462 73.3921 11.3279 72.6885 10.9426C71.9849 10.5572 71.418 10.0239 70.9908 9.33985C70.5636 8.65576 70.3486 7.73434 70.3486 6.56721C70.3486 5.22138 70.6502 4.05983 71.2533 3.08257C71.8564 2.1053 72.7136 1.34583 73.8193 0.80694C74.925 0.268049 76.2262 0 77.72 0C79.8839 0 81.6402 0.564021 82.9916 1.69485C83.6673 2.26167 84.2006 2.94854 84.5888 3.75269C85.2058 5.03151 84.2286 6.51416 82.8073 6.51416H81.805C81.2605 6.51416 80.7523 6.20423 80.5401 5.70443C80.0403 4.54009 79.0407 3.95652 77.5441 3.95652C76.6729 3.95652 76.0056 4.13522 75.5449 4.49541C75.0842 4.8556 74.8524 5.33865 74.8524 5.95014C74.8524 6.39968 74.9948 6.77662 75.2796 7.08097C75.5644 7.38532 76.0168 7.63662 76.6394 7.83486L80.8417 9.18069C82.4527 9.68328 83.6255 10.373 84.3654 11.2525C85.1025 12.132 85.4739 13.2796 85.4739 14.698C85.4739 15.9545 85.1667 17.0519 84.5553 17.9956C83.9438 18.9366 83.0838 19.6737 81.9753 20.2042C80.8668 20.7319 79.5684 20.9972 78.0746 20.9972H78.069Z" fill="black"/>
</svg>
